HIERARCHY
ROOT Hips
{
  OFFSET 84.2586 93.4049 34.6102
  CHANNELS 6 Xposition Yposition Zposition Zrotation Xrotation Yrotation
  JOINT Spine
  {
    OFFSET 0 7.39538 0
    CHANNELS 6 Xposition Yposition Zposition Zrotation Xrotation Yrotation
    JOINT Spine1
    {
      OFFSET 0 7.39538 0
      CHANNELS 6 Xposition Yposition Zposition Zrotation Xrotation Yrotation
      JOINT Spine2
      {
        OFFSET 0 7.39539 0
        CHANNELS 6 Xposition Yposition Zposition Zrotation Xrotation Yrotation
        JOINT Spine3
        {
          OFFSET 0 7.39538 0
          CHANNELS 6 Xposition Yposition Zposition Zrotation Xrotation Yrotation
          JOINT Neck
          {
            OFFSET 0.000293422 15.7152 -0.000161699
            CHANNELS 6 Xposition Yposition Zposition Zrotation Xrotation Yrotation
            JOINT Head
            {
              OFFSET 2.23513e-05 9.98377 0
              CHANNELS 6 Xposition Yposition Zposition Zrotation Xrotation Yrotation
              End Site
              {
                OFFSET 0 18.7195 0
              }
            }
          }
          JOINT LeftShoulder
          {
            OFFSET 5.00031 16.9999 -0.000173409
            CHANNELS 6 Xposition Yposition Zposition Zrotation Xrotation Yrotation
            JOINT LeftShoulder2
            {
              OFFSET 7 0 0
              CHANNELS 6 Xposition Yposition Zposition Zrotation Xrotation Yrotation
              JOINT LeftArm
              {
                OFFSET 7 -9.41238e-05 0
                CHANNELS 6 Xposition Yposition Zposition Zrotation Xrotation Yrotation
                JOINT LeftForeArm
                {
                  OFFSET 0 -38.5116 -1.99999
                  CHANNELS 6 Xposition Yposition Zposition Zrotation Xrotation Yrotation
                  JOINT LeftHand
                  {
                    OFFSET 0 -30.4884 2
                    CHANNELS 6 Xposition Yposition Zposition Zrotation Xrotation Yrotation
                    JOINT LeftHandThumb1
                    {
                      OFFSET -0.500002 -1.5 2.65
                      CHANNELS 6 Xposition Yposition Zposition Zrotation Xrotation Yrotation
                      JOINT LeftHandThumb2
                      {
                        OFFSET -1.3168e-05 -3.79999 3.7
                        CHANNELS 6 Xposition Yposition Zposition Zrotation Xrotation Yrotation
                        JOINT LeftHandThumb3
                        {
                          OFFSET 0 -3 2.7
                          CHANNELS 6 Xposition Yposition Zposition Zrotation Xrotation Yrotation
                          End Site
                          {
                            OFFSET 1.72211e-05 -2.3 1.8
                          }
                        }
                      }
                    }
                    JOINT LeftHandIndex
                    {
                      OFFSET 0 -1.9 1.6
                      CHANNELS 6 Xposition Yposition Zposition Zrotation Xrotation Yrotation
                      JOINT LeftHandIndex1
                      {
                        OFFSET -1.04071e-05 -8.29999 1.9
                        CHANNELS 6 Xposition Yposition Zposition Zrotation Xrotation Yrotation
                        JOINT LeftHandIndex2
                        {
                          OFFSET 1.28134e-05 -4.50001 0
                          CHANNELS 6 Xposition Yposition Zposition Zrotation Xrotation Yrotation
                          JOINT LeftHandIndex3
                          {
                            OFFSET -1.14343e-05 -3.4 0
                            CHANNELS 6 Xposition Yposition Zposition Zrotation Xrotation Yrotation
                            End Site
                            {
                              OFFSET 0 -2.6 0
                            }
                          }
                        }
                      }
                    }
                    JOINT LeftHandMiddle
                    {
                      OFFSET -0.250003 -2.2 0.399998
                      CHANNELS 6 Xposition Yposition Zposition Zrotation Xrotation Yrotation
                      JOINT LeftHandMiddle1
                      {
                        OFFSET -1.33565e-05 -8.3 1.00001
                        CHANNELS 6 Xposition Yposition Zposition Zrotation Xrotation Yrotation
                        JOINT LeftHandMiddle2
                        {
                          OFFSET 0 -4.65 0
                          CHANNELS 6 Xposition Yposition Zposition Zrotation Xrotation Yrotation
                          JOINT LeftHandMiddle3
                          {
                            OFFSET 0 -3.3 0
                            CHANNELS 6 Xposition Yposition Zposition Zrotation Xrotation Yrotation
                            End Site
                            {
                              OFFSET 0 -2.7 0
                            }
                          }
                        }
                      }
                    }
                    JOINT LeftHandRing
                    {
                      OFFSET -0.50002 -2.15 -0.799995
                      CHANNELS 6 Xposition Yposition Zposition Zrotation Xrotation Yrotation
                      JOINT LeftHandRing1
                      {
                        OFFSET 1.50333e-05 -7.75 -0.200004
                        CHANNELS 6 Xposition Yposition Zposition Zrotation Xrotation Yrotation
                        JOINT LeftHandRing2
                        {
                          OFFSET 0 -3.79999 0
                          CHANNELS 6 Xposition Yposition Zposition Zrotation Xrotation Yrotation
                          JOINT LeftHandRing3
                          {
                            OFFSET 0 -3.4 0
                            CHANNELS 6 Xposition Yposition Zposition Zrotation Xrotation Yrotation
                            End Site
                            {
                              OFFSET 0 -2.6 0
                            }
                          }
                        }
                      }
                    }
                    JOINT LeftHandPinky
                    {
                      OFFSET -0.750017 -1.74999 -1.85
                      CHANNELS 6 Xposition Yposition Zposition Zrotation Xrotation Yrotation
                      JOINT LeftHandPinky1
                      {
                        OFFSET 0 -7.15001 -0.999992
                        CHANNELS 6 Xposition Yposition Zposition Zrotation Xrotation Yrotation
                        JOINT LeftHandPinky2
                        {
                          OFFSET 0 -3 0
                          CHANNELS 6 Xposition Yposition Zposition Zrotation Xrotation Yrotation
                          JOINT LeftHandPinky3
                          {
                            OFFSET 0 -2.34999 0
                            CHANNELS 6 Xposition Yposition Zposition Zrotation Xrotation Yrotation
                            End Site
                            {
                              OFFSET 0 -2.10001 0
                            }
                          }
                        }
                      }
                    }
                  }
                }
              }
            }
          }
          JOINT RightShoulder
          {
            OFFSET -4.99969 17.0001 -0.000183503
            CHANNELS 6 Xposition Yposition Zposition Zrotation Xrotation Yrotation
            JOINT RightShoulder2
            {
              OFFSET -7 0 0
              CHANNELS 6 Xposition Yposition Zposition Zrotation Xrotation Yrotation
              JOINT RightArm
              {
                OFFSET -7.00001 5.28109e-05 2.92896e-05
                CHANNELS 6 Xposition Yposition Zposition Zrotation Xrotation Yrotation
                JOINT RightForeArm
                {
                  OFFSET 0 -38.5116 -2.00001
                  CHANNELS 6 Xposition Yposition Zposition Zrotation Xrotation Yrotation
                  JOINT RightHand
                  {
                    OFFSET 1.27636e-05 -30.4884 2.00001
                    CHANNELS 6 Xposition Yposition Zposition Zrotation Xrotation Yrotation
                    JOINT RightHandThumb1
                    {
                      OFFSET 0.500001 -1.49999 2.65
                      CHANNELS 6 Xposition Yposition Zposition Zrotation Xrotation Yrotation
                      JOINT RightHandThumb2
                      {
                        OFFSET 0 -3.8 3.7
                        CHANNELS 6 Xposition Yposition Zposition Zrotation Xrotation Yrotation
                        JOINT RightHandThumb3
                        {
                          OFFSET 0 -3 2.7
                          CHANNELS 6 Xposition Yposition Zposition Zrotation Xrotation Yrotation
                          End Site
                          {
                            OFFSET 0 -2.3 1.8
                          }
                        }
                      }
                    }
                    JOINT RightHandIndex
                    {
                      OFFSET 0 -1.9 1.6
                      CHANNELS 6 Xposition Yposition Zposition Zrotation Xrotation Yrotation
                      JOINT RightHandIndex1
                      {
                        OFFSET 0 -8.3 1.9
                        CHANNELS 6 Xposition Yposition Zposition Zrotation Xrotation Yrotation
                        JOINT RightHandIndex2
                        {
                          OFFSET 0 -4.49999 0
                          CHANNELS 6 Xposition Yposition Zposition Zrotation Xrotation Yrotation
                          JOINT RightHandIndex3
                          {
                            OFFSET 0 -3.40001 0
                            CHANNELS 6 Xposition Yposition Zposition Zrotation Xrotation Yrotation
                            End Site
                            {
                              OFFSET 0 -2.59999 0
                            }
                          }
                        }
                      }
                    }
                    JOINT RightHandMiddle
                    {
                      OFFSET 0.249994 -2.19999 0.399994
                      CHANNELS 6 Xposition Yposition Zposition Zrotation Xrotation Yrotation
                      JOINT RightHandMiddle1
                      {
                        OFFSET 0 -8.29999 1
                        CHANNELS 6 Xposition Yposition Zposition Zrotation Xrotation Yrotation
                        JOINT RightHandMiddle2
                        {
                          OFFSET 0 -4.65001 0
                          CHANNELS 6 Xposition Yposition Zposition Zrotation Xrotation Yrotation
                          JOINT RightHandMiddle3
                          {
                            OFFSET -1.4807e-05 -3.3 0
                            CHANNELS 6 Xposition Yposition Zposition Zrotation Xrotation Yrotation
                            End Site
                            {
                              OFFSET 0 -2.7 0
                            }
                          }
                        }
                      }
                    }
                    JOINT RightHandRing
                    {
                      OFFSET 0.499996 -2.14999 -0.800004
                      CHANNELS 6 Xposition Yposition Zposition Zrotation Xrotation Yrotation
                      JOINT RightHandRing1
                      {
                        OFFSET 0 -7.75001 -0.199994
                        CHANNELS 6 Xposition Yposition Zposition Zrotation Xrotation Yrotation
                        JOINT RightHandRing2
                        {
                          OFFSET 0 -3.8 0
                          CHANNELS 6 Xposition Yposition Zposition Zrotation Xrotation Yrotation
                          JOINT RightHandRing3
                          {
                            OFFSET 0 -3.39999 0
                            CHANNELS 6 Xposition Yposition Zposition Zrotation Xrotation Yrotation
                            End Site
                            {
                              OFFSET 1.24368e-05 -2.60001 0
                            }
                          }
                        }
                      }
                    }
                    JOINT RightHandPinky
                    {
                      OFFSET 0.749994 -1.75 -1.85
                      CHANNELS 6 Xposition Yposition Zposition Zrotation Xrotation Yrotation
                      JOINT RightHandPinky1
                      {
                        OFFSET 0 -7.14999 -1
                        CHANNELS 6 Xposition Yposition Zposition Zrotation Xrotation Yrotation
                        JOINT RightHandPinky2
                        {
                          OFFSET 0 -3 0
                          CHANNELS 6 Xposition Yposition Zposition Zrotation Xrotation Yrotation
                          JOINT RightHandPinky3
                          {
                            OFFSET 0 -2.35 0
                            CHANNELS 6 Xposition Yposition Zposition Zrotation Xrotation Yrotation
                            End Site
                            {
                              OFFSET 0 -2.10001 0
                            }
                          }
                        }
                      }
                    }
                  }
                }
              }
            }
          }
        }
      }
    }
  }
  JOINT LeftUpLeg
  {
    OFFSET 8 0 0
    CHANNELS 6 Xposition Yposition Zposition Zrotation Xrotation Yrotation
    JOINT LeftLeg
    {
      OFFSET 0 -46.3081 -0.999996
      CHANNELS 6 Xposition Yposition Zposition Zrotation Xrotation Yrotation
      JOINT LeftFoot
      {
        OFFSET 0 -42.1919 -1.99999
        CHANNELS 6 Xposition Yposition Zposition Zrotation Xrotation Yrotation
        JOINT LeftToeBase
        {
          OFFSET 0 -7.5 12.5
          CHANNELS 6 Xposition Yposition Zposition Zrotation Xrotation Yrotation
          JOINT LeftFootToe
          {
            OFFSET 0 0 4
            CHANNELS 6 Xposition Yposition Zposition Zrotation Xrotation Yrotation
            End Site
            {
              OFFSET 0 0 0
            }
          }
        }
      }
    }
  }
  JOINT RightUpLeg
  {
    OFFSET -8 0 0
    CHANNELS 6 Xposition Yposition Zposition Zrotation Xrotation Yrotation
    JOINT RightLeg
    {
      OFFSET 0 -46.3081 -1.00001
      CHANNELS 6 Xposition Yposition Zposition Zrotation Xrotation Yrotation
      JOINT RightFoot
      {
        OFFSET 0 -42.1919 -2
        CHANNELS 6 Xposition Yposition Zposition Zrotation Xrotation Yrotation
        JOINT RightToeBase
        {
          OFFSET 0 -7.50001 12.5
          CHANNELS 6 Xposition Yposition Zposition Zrotation Xrotation Yrotation
          JOINT RightFootToe
          {
            OFFSET 0 0 4
            CHANNELS 6 Xposition Yposition Zposition Zrotation Xrotation Yrotation
            End Site
            {
              OFFSET 0 0 0
            }
          }
        }
      }
    }
  }
}
MOTION
Frames:	3
Frame Time:	0.0111111
96.7351 95.0372 18.3447 -1.66577 1.44136 113.181 1.42109e-14 7.39538 0 -2.17893 0.161928 -9.88314 0 7.39538 1.42109e-14 -0.0163904 -0.055923 -3.04602 0 7.39538 0 -0.0560024 0.475902 0.279586 0 7.39538 0 -0.224946 0.684904 -1.13455 -7.10543e-15 15.7152 0 -0.92218 3.25938 9.76824 0 9.98376 -1.42109e-14 -3.02495 7.31039 23.0945 5 17 1.42109e-14 0.000457982 -0.00308982 -3.83003 7 0 0 0.000394777 -0.00313971 -3.83101 7 0 -1.42109e-14 16.8621 -15.4687 2.14385 0 -38.5116 -2 -96.4769 -17.0778 -78.4158 -1.42109e-14 -30.4884 2 11.1818 8.42521 -22.7776 -0.5 -1.5 2.65 5.03749 5.78667 7.61197 1.42109e-14 -3.8 3.7 0.00994858 2.57515 -0.00056393 2.84217e-14 -3 2.7 -0.166595 43.3915 -0.242057 0 -1.9 1.6 -1.40738e-06 -2.62902e-06 -2.53989e-06 0 -8.3 1.9 -0.0217697 -1.37149 0.00581006 0 -4.5 0 8.17391e-05 0.00351313 0.00265889 -2.84217e-14 -3.4 1.42109e-14 8.7464e-05 0.00344319 0.00263895 -0.25 -2.2 0.4 -1.40738e-06 -2.62902e-06 -2.53989e-06 0 -8.3 1 -0.105074 2.78143 0.0152603 0 -4.65 1.42109e-14 1.72699e-06 -1.5344e-05 2.13067e-06 -2.84217e-14 -3.3 0 6.97653e-08 7.27236e-07 -8.12555e-06 -0.5 -2.15 -0.8 -1.40738e-06 -2.62902e-06 -2.53989e-06 -2.84217e-14 -7.75 -0.2 -0.119808 -3.04254 -0.0509979 0 -3.8 7.10543e-15 -0.000203805 0.000785989 -0.00445432 -2.84217e-14 -3.4 7.10543e-15 7.96357e-06 0.0130409 0.0115991 -0.75 -1.75 -1.85 -1.40738e-06 -2.62902e-06 -2.53989e-06 0 -7.15 -1 -0.0218202 0.498326 -0.00022468 -2.84217e-14 -3 0 -0.00014175 0.00343777 0.00456164 0 -2.35 -7.10543e-15 -5.19769e-06 0.00336177 0.00451383 -5 17 -1.42109e-14 0.00642462 -0.0035548 2.59984 -7 -2.84217e-14 -2.84217e-14 0.00680546 -0.00409562 2.59726 -7 0 0 -17.0856 -10.8264 -26.4404 0 -38.5116 -2 60.8326 -75.2707 22.6451 0 -30.4884 2 -38.4911 -19.7896 31.4192 0.5 -1.5 2.65 16.1321 21.1159 -1.44959 -7.10543e-15 -3.8 3.7 0.748733 12.8128 -0.11612 0 -3 2.7 0.0301542 13.9744 -0.0388301 7.10543e-15 -1.9 1.6 4.38016e-06 -1.891e-07 -4.93968e-07 0 -8.3 1.9 14.4287 4.17904 -0.596206 7.10543e-15 -4.5 1.42109e-14 4.15328 0.0134583 0.267826 7.10543e-15 -3.4 1.42109e-14 3.92523 0.0145088 -0.0014102 0.25 -2.2 0.4 4.38016e-06 -1.891e-07 -4.93968e-07 7.10543e-15 -8.3 1 15.9011 2.62883 -0.583832 0 -4.65 -1.42109e-14 0.620631 0.132516 0.0503862 7.10543e-15 -3.3 -1.42109e-14 0.61195 -1.10854 0.0222887 0.5 -2.15 -0.8 4.38016e-06 -1.891e-07 -4.93968e-07 7.10543e-15 -7.75 -0.2 17.7828 1.44598 -1.20615 -7.10543e-15 -3.8 0 0.0055466 -0.00561508 0.361844 0 -3.4 -1.42109e-14 -0.0405588 -0.0055538 0.351447 0.75 -1.75 -1.85 4.38016e-06 -1.891e-07 -4.93968e-07 -7.10543e-15 -7.15 -1 15.7277 -15.1887 0.246082 7.10543e-15 -3 1.42109e-14 0.390741 -0.00598267 -0.0037946 0 -2.35 1.42109e-14 0.38473 -0.00737739 -0.031461 8 1.42109e-14 0 -7.33541 -10.7016 -9.55498 7.10543e-15 -46.3081 -1 -0.610703 17.6229 5.69627 0 -42.1919 -2 2.91756 -4.30155 11.5257 -7.10543e-15 -7.5 12.5 3.66997e-08 -3.23144 1.29188e-06 0 0 4 -3.73245 8.40915 -0.000328014 -8 2.84217e-14 0 -4.7961 -12.3139 -25.3127 0 -46.3081 -1 -0.177883 17.5631 1.76007 0 -42.1919 -2 -2.29756 -6.02759 51.8971 -1.42109e-14 -7.5 12.5 1.63957e-09 0.118612 -4.22787e-06 -1.42109e-14 0 4 0.316381 -2.72144 -0.00749071 
96.5465 94.9795 18.4569 -1.76001 1.44482 113.129 -7.10543e-15 7.39538 0 -2.27874 0.234477 -9.85902 0 7.39538 0 -0.0224465 -0.0459569 -3.06286 0 7.39538 0 -0.0496602 0.474848 0.251936 0 7.39538 0 -0.212721 0.691387 -1.13232 7.10543e-15 15.7152 0 -0.991044 3.30428 9.79851 0 9.98376 -1.42109e-14 -3.20049 7.39484 23.1762 5 17 1.42109e-14 0.00046171 -0.00309006 -3.7609 7 0 0 0.00040047 -0.00313945 -3.76459 7 0 0 16.6294 -15.1675 2.09391 0 -38.5116 -2 -95.9063 -17.1275 -78.315 1.42109e-14 -30.4884 2 11.3589 8.40237 -22.7829 -0.5 -1.5 2.65 4.95027 5.75043 7.63003 0 -3.8 3.7 0.00994864 2.58158 -0.000563933 0 -3 2.7 -0.166184 43.4621 -0.242339 0 -1.9 1.6 -1.40738e-06 -2.62902e-06 -2.53989e-06 -2.84217e-14 -8.3 1.9 -0.0217763 -1.3066 0.00580991 2.84217e-14 -4.5 -1.42109e-14 8.17391e-05 0.00351313 0.00265889 0 -3.4 1.42109e-14 8.7464e-05 0.00344319 0.00263895 -0.25 -2.2 0.4 -1.40738e-06 -2.62902e-06 -2.53989e-06 0 -8.3 1 -0.0975598 2.68103 0.015259 2.84217e-14 -4.65 0 1.72699e-06 -1.5344e-05 2.13067e-06 0 -3.3 0 6.97653e-08 7.27236e-07 -8.12555e-06 -0.5 -2.15 -0.8 -1.40738e-06 -2.62902e-06 -2.53989e-06 0 -7.75 -0.2 -0.119907 -3.0565 -0.0526153 0 -3.8 -7.10543e-15 -0.000203805 0.000785989 -0.00445432 0 -3.4 -1.42109e-14 7.96357e-06 0.0130409 0.0115991 -0.75 -1.75 -1.85 -1.40738e-06 -2.62902e-06 -2.53989e-06 -2.84217e-14 -7.15 -1 -0.0218206 0.409183 -0.000224677 0 -3 -7.10543e-15 -0.00014175 0.00343777 0.00456164 0 -2.35 -7.10543e-15 -5.19769e-06 0.00336177 0.00451383 -5 17 1.42109e-14 0.00642737 -0.00355468 2.64409 -7 0 1.42109e-14 0.00680748 -0.00409651 2.6426 -7 0 0 -17.4626 -11.0624 -26.481 7.10543e-15 -38.5116 -2 58.7506 -74.7489 20.5838 7.10543e-15 -30.4884 2 -37.6351 -18.4768 31.5465 0.5 -1.5 2.65 15.8204 20.8269 -1.23348 -1.42109e-14 -3.8 3.7 0.797274 13.2566 -0.104677 7.10543e-15 -3 2.7 0.0387164 14.0956 -0.0457899 0 -1.9 1.6 4.38016e-06 -1.891e-07 -4.93968e-07 1.42109e-14 -8.3 1.9 13.5906 4.02861 -0.535116 0 -4.5 1.42109e-14 4.35748 0.0134583 0.267826 -7.10543e-15 -3.4 -1.42109e-14 4.10874 0.0145088 -0.0014102 0.25 -2.2 0.4 4.38016e-06 -1.891e-07 -4.93968e-07 -2.13163e-14 -8.3 1 15.0599 2.42559 -0.521045 0 -4.65 0 0.812114 0.132516 0.0503862 0 -3.3 0 0.799751 -1.10854 0.0222887 0.5 -2.15 -0.8 4.38016e-06 -1.891e-07 -4.93968e-07 -1.42109e-14 -7.75 -0.2 16.8958 1.50888 -1.05639 7.10543e-15 -3.8 -1.42109e-14 0.0055466 -0.00561508 0.361844 -7.10543e-15 -3.4 0 -0.0405588 -0.0055538 0.351447 0.75 -1.75 -1.85 4.38016e-06 -1.891e-07 -4.93968e-07 -7.10543e-15 -7.15 -1 15.9022 -17.0745 0.2758 7.10543e-15 -3 -7.10543e-15 0.579498 -0.00598267 -0.0037946 -7.10543e-15 -2.35 0 0.569173 -0.00737739 -0.031461 8 0 -1.42109e-14 -7.31795 -10.6193 -9.41852 -7.10543e-15 -46.3081 -1 -0.566431 17.0759 5.52558 0 -42.1919 -2 3.04457 -4.52237 11.6021 0 -7.5 12.5 2.17568e-08 -2.56937 1.29113e-06 -7.10543e-15 -2.77556e-17 4 -3.6009 8.14474 -0.00242122 -8 1.42109e-14 0 -4.92239 -12.7303 -25.7049 3.55271e-15 -46.3081 -1 -0.181468 17.9575 1.73447 0 -42.1919 -2 -2.43381 -6.09959 52.3236 -1.42109e-14 -7.5 12.5 1.63957e-09 0.118612 -4.22787e-06 1.42109e-14 -1.38778e-17 4 0.305142 -2.86546 -0.00749361 
96.3682 94.9312 18.5617 -1.84501 1.4116 113.079 7.10543e-15 7.39538 -1.42109e-14 -2.34967 0.314275 -9.83319 -7.10543e-15 7.39538 1.42109e-14 -0.030098 -0.0354876 -3.08535 0 7.39538 0 -0.0435257 0.475309 0.227344 7.10543e-15 7.39538 -1.42109e-14 -0.200253 0.69987 -1.1354 0 15.7152 0 -1.05863 3.34929 9.82574 0 9.98376 0 -3.37294 7.47989 23.2507 5 17 -2.84217e-14 0.000465465 -0.00309031 -3.69128 7 -2.84217e-14 0 0.000406487 -0.00313921 -3.69231 7 2.84217e-14 -1.42109e-14 16.3938 -14.8647 2.03937 0 -38.5116 -2 -95.3399 -17.2231 -78.2443 1.42109e-14 -30.4884 2 11.5295 8.39517 -22.7884 -0.5 -1.5 2.65 4.86719 5.70768 7.66214 0 -3.8 3.7 0.00994872 2.58944 -0.000563936 1.42109e-14 -3 2.7 -0.165814 43.5255 -0.242594 0 -1.9 1.6 -1.40738e-06 -2.62902e-06 -2.53989e-06 0 -8.3 1.9 -0.021782 -1.25025 0.00580978 -2.84217e-14 -4.5 0 8.17391e-05 0.00351313 0.00265889 0 -3.4 1.42109e-14 8.7464e-05 0.00344319 0.00263895 -0.25 -2.2 0.4 -1.40738e-06 -2.62902e-06 -2.53989e-06 0 -8.3 1 -0.0898194 2.57411 0.0152577 2.84217e-14 -4.65 -1.42109e-14 1.72699e-06 -1.5344e-05 2.13067e-06 2.84217e-14 -3.3 1.42109e-14 6.97653e-08 7.27236e-07 -8.12555e-06 -0.5 -2.15 -0.8 -1.40738e-06 -2.62902e-06 -2.53989e-06 0 -7.75 -0.2 -0.119991 -3.05499 -0.0542239 0 -3.8 -7.10543e-15 -0.000203805 0.000785989 -0.00445432 0 -3.4 7.10543e-15 7.96357e-06 0.0130409 0.0115991 -0.75 -1.75 -1.85 -1.40738e-06 -2.62902e-06 -2.53989e-06 0 -7.15 -1 -0.0218209 0.315095 -0.000224675 2.84217e-14 -3 7.10543e-15 -0.00014175 0.00343777 0.00456164 0 -2.35 7.10543e-15 -5.19769e-06 0.00336177 0.00451383 -5 17 0 0.00643038 -0.00355454 2.6926 -7 2.84217e-14 0 0.00680984 -0.00409738 2.69275 -7 0 0 -17.8695 -11.3122 -26.5189 -7.10543e-15 -38.5116 -2 56.8277 -74.1195 18.6423 0 -30.4884 2 -36.8572 -17.2829 31.5632 0.5 -1.5 2.65 15.545 20.5538 -1.0359 2.13163e-14 -3.8 3.7 0.843342 13.6639 -0.0969101 0 -3 2.7 0.0463636 14.213 -0.0520803 7.10543e-15 -1.9 1.6 4.38016e-06 -1.891e-07 -4.93968e-07 -7.10543e-15 -8.3 1.9 12.8109 3.88301 -0.480882 -1.42109e-14 -4.5 0 4.57753 0.0134583 0.267826 3.55271e-15 -3.4 0 4.30471 0.0145088 -0.0014102 0.25 -2.2 0.4 4.38016e-06 -1.891e-07 -4.93968e-07 0 -8.3 1 14.2802 2.23956 -0.465944 0 -4.65 0 0.990087 0.132516 0.0503862 0 -3.3 0 0.974054 -1.10854 0.0222887 0.5 -2.15 -0.8 4.38016e-06 -1.891e-07 -4.93968e-07 7.10543e-15 -7.75 -0.2 16.0697 1.58246 -0.921027 7.10543e-15 -3.8 -1.42109e-14 0.0055466 -0.00561508 0.361844 -7.10543e-15 -3.4 0 -0.0405588 -0.0055538 0.351447 0.75 -1.75 -1.85 4.38016e-06 -1.891e-07 -4.93968e-07 0 -7.15 -1 16.0162 -18.7701 0.285313 3.55271e-15 -3 7.10543e-15 0.776999 -0.00598267 -0.0037946 3.55271e-15 -2.35 -7.10543e-15 0.762073 -0.00737739 -0.031461 8 1.42109e-14 -1.42109e-14 -7.2649 -10.5475 -9.2696 0 -46.3081 -1 -0.525614 16.5479 5.3589 7.10543e-15 -42.1919 -2 3.16615 -4.72058 11.663 0 -7.5 12.5 7.54248e-09 -1.93893 1.29057e-06 0 0 4 -3.47031 7.78446 -0.00898534 -8 1.42109e-14 -1.42109e-14 -4.99021 -13.0982 -26.084 3.55271e-15 -46.3081 -1 -0.182685 18.2349 1.70444 0 -42.1919 -2 -2.56573 -6.11042 52.7419 1.42109e-14 -7.5 12.5 1.63957e-09 0.118612 -4.22787e-06 0 -2.77556e-17 4 0.296513 -3.00717 -0.00749655 
